<svg viewBox="0 0 1200 820" xmlns="http://www.w3.org/2000/svg" font-family="'Pretendard', 'Apple SD Gothic Neo', system-ui, sans-serif">
  <defs>
    <filter id="sh"><feDropShadow dx="0" dy="3" stdDeviation="4" flood-opacity="0.12"/></filter>
    <filter id="shSm"><feDropShadow dx="0" dy="1" stdDeviation="2" flood-opacity="0.08"/></filter>
    <marker id="ar" markerWidth="10" markerHeight="7" refX="10" refY="3.5" orient="auto"><polygon points="0 0,10 3.5,0 7" fill="#4a8db8"/></marker>
    <marker id="arG" markerWidth="10" markerHeight="7" refX="10" refY="3.5" orient="auto"><polygon points="0 0,10 3.5,0 7" fill="#27ae60"/></marker>
    <marker id="arO" markerWidth="10" markerHeight="7" refX="10" refY="3.5" orient="auto"><polygon points="0 0,10 3.5,0 7" fill="#e67e22"/></marker>
    <marker id="arP" markerWidth="10" markerHeight="7" refX="10" refY="3.5" orient="auto"><polygon points="0 0,10 3.5,0 7" fill="#9b59b6"/></marker>
  </defs>

  <rect width="1200" height="820" rx="12" fill="#f8fafb"/>

  <!-- Title -->
  <text x="600" y="34" text-anchor="middle" font-size="19" font-weight="700" fill="#1e293b" letter-spacing="-0.02em">pay — Spring Modulith 결제 시스템 아키텍처</text>
  <text x="600" y="53" text-anchor="middle" font-size="11" fill="#94a3b8">모듈형 모놀리스 · 17 모듈 · 모듈 간 통신은 도메인 이벤트(Outbox) · 경계는 ModularityTests가 CI에서 강제</text>

  <!-- ══════ 유입 층 ══════ -->
  <text x="48" y="92" font-size="11" font-weight="700" fill="#64748b">유입 · 인증</text>

  <rect x="40" y="100" width="130" height="54" rx="10" fill="#fff" stroke="#4a8db8" stroke-width="2" filter="url(#sh)"/>
  <rect x="40" y="100" width="130" height="4" rx="10" fill="#4a8db8"/>
  <text x="105" y="126" text-anchor="middle" font-size="12" font-weight="700" fill="#1e293b">사용자</text>
  <text x="105" y="141" text-anchor="middle" font-size="9" fill="#94a3b8">REST API</text>

  <rect x="40" y="170" width="130" height="54" rx="10" fill="#fff" stroke="#9b59b6" stroke-width="1.5" filter="url(#sh)"/>
  <rect x="40" y="170" width="130" height="4" rx="10" fill="#9b59b6"/>
  <text x="105" y="196" text-anchor="middle" font-size="12" font-weight="700" fill="#1e293b">어드민</text>
  <text x="105" y="211" text-anchor="middle" font-size="9" fill="#94a3b8">2인 승인 · 수기 대사</text>

  <rect x="210" y="100" width="170" height="54" rx="10" fill="#fff" stroke="#4a8db8" stroke-width="1.5" filter="url(#sh)"/>
  <rect x="210" y="100" width="170" height="4" rx="10" fill="#4a8db8"/>
  <text x="295" y="126" text-anchor="middle" font-size="12" font-weight="700" fill="#1e293b">queue 대기열·유입제어</text>
  <text x="295" y="141" text-anchor="middle" font-size="9" fill="#94a3b8">Redis Sorted Set · 429 rate limit</text>

  <rect x="210" y="170" width="170" height="54" rx="10" fill="#fff" stroke="#4a8db8" stroke-width="1.5" filter="url(#sh)"/>
  <rect x="210" y="170" width="170" height="4" rx="10" fill="#4a8db8"/>
  <text x="295" y="196" text-anchor="middle" font-size="12" font-weight="700" fill="#1e293b">member 회원·인증</text>
  <text x="295" y="211" text-anchor="middle" font-size="9" fill="#94a3b8">JWT · refresh 회전 · denylist</text>

  <!-- ══════ 결제 코어 층 ══════ -->
  <text x="428" y="92" font-size="11" font-weight="700" fill="#64748b">결제 코어 — 체크아웃 사가: 예약(tx) → PG 승인(tx 밖) → 확정·보상(tx)</text>

  <rect x="420" y="100" width="200" height="124" rx="10" fill="#fff" stroke="#27ae60" stroke-width="2" filter="url(#sh)"/>
  <rect x="420" y="100" width="200" height="4" rx="10" fill="#27ae60"/>
  <text x="520" y="126" text-anchor="middle" font-size="13" font-weight="700" fill="#1e293b">order 주문·체크아웃</text>
  <text x="520" y="145" text-anchor="middle" font-size="9.5" fill="#64748b">상태머신 · 서버 금액 검증</text>
  <text x="520" y="160" text-anchor="middle" font-size="9.5" fill="#64748b">재고 조건부 UPDATE</text>
  <text x="520" y="175" text-anchor="middle" font-size="9.5" fill="#64748b">취소(포인트 우선 환불)</text>
  <text x="520" y="190" text-anchor="middle" font-size="9.5" fill="#64748b">에스크로 구매확정</text>
  <text x="520" y="208" text-anchor="middle" font-size="9" fill="#94a3b8">orders · order_items · stock</text>

  <rect x="660" y="100" width="200" height="124" rx="10" fill="#fff" stroke="#27ae60" stroke-width="2" filter="url(#sh)"/>
  <rect x="660" y="100" width="200" height="4" rx="10" fill="#27ae60"/>
  <text x="760" y="126" text-anchor="middle" font-size="13" font-weight="700" fill="#1e293b">payment 결제</text>
  <text x="760" y="145" text-anchor="middle" font-size="9.5" fill="#64748b">승인·거절·UNKNOWN 3-상태</text>
  <text x="760" y="160" text-anchor="middle" font-size="9.5" fill="#64748b">Idempotency-Key + 유니크 제약</text>
  <text x="760" y="175" text-anchor="middle" font-size="9.5" fill="#64748b">망취소 보상 · 부분취소 멱등</text>
  <text x="760" y="190" text-anchor="middle" font-size="9.5" fill="#64748b">웹훅 서명 검증 · 비동기 해석</text>
  <text x="760" y="208" text-anchor="middle" font-size="9" fill="#94a3b8">payments · payment_history</text>

  <rect x="900" y="100" width="260" height="124" rx="10" fill="#fff" stroke="#e67e22" stroke-width="2" filter="url(#sh)"/>
  <rect x="900" y="100" width="260" height="4" rx="10" fill="#e67e22"/>
  <text x="1030" y="126" text-anchor="middle" font-size="13" font-weight="700" fill="#1e293b">PG 어댑터</text>
  <text x="1030" y="145" text-anchor="middle" font-size="9.5" fill="#64748b">Resilient(서킷·재시도) → Routing(멀티 PG)</text>
  <text x="1030" y="160" text-anchor="middle" font-size="9.5" fill="#64748b">→ Toss / Fake 구현 교체</text>
  <text x="1030" y="175" text-anchor="middle" font-size="9.5" fill="#64748b">TIMEOUT엔 failover 금지(이중결제)</text>
  <text x="1030" y="190" text-anchor="middle" font-size="9.5" fill="#64748b">타임아웃 → UNKNOWN 보존</text>
  <text x="1030" y="208" text-anchor="middle" font-size="9" fill="#94a3b8">외부 PG · 웹훅 수신</text>

  <!-- 결제수단 -->
  <rect x="420" y="244" width="140" height="66" rx="10" fill="#fff" stroke="#27ae60" stroke-width="1.5" filter="url(#shSm)"/>
  <rect x="420" y="244" width="140" height="4" rx="10" fill="#27ae60"/>
  <text x="490" y="268" text-anchor="middle" font-size="11.5" font-weight="700" fill="#1e293b">point 포인트</text>
  <text x="490" y="283" text-anchor="middle" font-size="9" fill="#64748b">append-only 이력</text>
  <text x="490" y="296" text-anchor="middle" font-size="9" fill="#64748b">적립·회수·환불 정산</text>

  <rect x="580" y="244" width="140" height="66" rx="10" fill="#fff" stroke="#27ae60" stroke-width="1.5" filter="url(#shSm)"/>
  <rect x="580" y="244" width="140" height="4" rx="10" fill="#27ae60"/>
  <text x="650" y="268" text-anchor="middle" font-size="11.5" font-weight="700" fill="#1e293b">wallet 선불 월렛</text>
  <text x="650" y="283" text-anchor="middle" font-size="9" fill="#64748b">원장식 잔액 · 전금법 한도</text>
  <text x="650" y="296" text-anchor="middle" font-size="9" fill="#64748b">RESTORE / REFUND 분리</text>

  <rect x="740" y="244" width="150" height="66" rx="10" fill="#fff" stroke="#27ae60" stroke-width="1.5" filter="url(#shSm)"/>
  <rect x="740" y="244" width="150" height="4" rx="10" fill="#27ae60"/>
  <text x="815" y="268" text-anchor="middle" font-size="11.5" font-weight="700" fill="#1e293b">subscription 구독</text>
  <text x="815" y="283" text-anchor="middle" font-size="9" fill="#64748b">빌링키 자동결제</text>
  <text x="815" y="296" text-anchor="middle" font-size="9" fill="#64748b">dunning 재시도</text>

  <rect x="910" y="244" width="130" height="66" rx="10" fill="#fff" stroke="#27ae60" stroke-width="1.5" filter="url(#shSm)"/>
  <rect x="910" y="244" width="130" height="4" rx="10" fill="#27ae60"/>
  <text x="975" y="268" text-anchor="middle" font-size="11.5" font-weight="700" fill="#1e293b">가상계좌</text>
  <text x="975" y="283" text-anchor="middle" font-size="9" fill="#64748b">입금 대기 · 만료</text>
  <text x="975" y="296" text-anchor="middle" font-size="9" fill="#64748b">DONE 역전이 방어</text>

  <!-- ══════ Outbox 바 ══════ -->
  <rect x="40" y="346" width="1120" height="44" rx="10" fill="#fef7ec" stroke="#e67e22" stroke-width="1.5" filter="url(#shSm)"/>
  <text x="600" y="368" text-anchor="middle" font-size="12.5" font-weight="700" fill="#b45309">도메인 이벤트 — Spring Modulith Outbox (event_publication, at-least-once 재배달)</text>
  <text x="600" y="383" text-anchor="middle" font-size="9.5" fill="#b45309">PaymentCompleted · PaymentCanceled · PurchaseConfirmed · WebhookReceived … 리스너는 멱등하게 소비</text>

  <!-- ══════ 이벤트 구독자 층 ══════ -->
  <text x="48" y="424" font-size="11" font-weight="700" fill="#64748b">이벤트 구독자 — 결제 코어를 모르는 채로 각자의 일을 이어간다</text>

  <rect x="40" y="434" width="150" height="72" rx="10" fill="#fff" stroke="#9b59b6" stroke-width="1.5" filter="url(#shSm)"/>
  <rect x="40" y="434" width="150" height="4" rx="10" fill="#9b59b6"/>
  <text x="115" y="458" text-anchor="middle" font-size="11.5" font-weight="700" fill="#1e293b">ledger 원장</text>
  <text x="115" y="474" text-anchor="middle" font-size="9" fill="#64748b">복식부기 차변=대변</text>
  <text x="115" y="488" text-anchor="middle" font-size="9" fill="#64748b">취소 역분개</text>

  <rect x="210" y="434" width="150" height="72" rx="10" fill="#fff" stroke="#9b59b6" stroke-width="1.5" filter="url(#shSm)"/>
  <rect x="210" y="434" width="150" height="4" rx="10" fill="#9b59b6"/>
  <text x="285" y="458" text-anchor="middle" font-size="11.5" font-weight="700" fill="#1e293b">escrow 에스크로</text>
  <text x="285" y="474" text-anchor="middle" font-size="9" fill="#64748b">구매확정까지 HELD</text>
  <text x="285" y="488" text-anchor="middle" font-size="9" fill="#64748b">RELEASED / REFUNDED</text>

  <rect x="380" y="434" width="150" height="72" rx="10" fill="#fff" stroke="#9b59b6" stroke-width="1.5" filter="url(#shSm)"/>
  <rect x="380" y="434" width="150" height="4" rx="10" fill="#9b59b6"/>
  <text x="455" y="458" text-anchor="middle" font-size="11.5" font-weight="700" fill="#1e293b">settlement 정산</text>
  <text x="455" y="474" text-anchor="middle" font-size="9" fill="#64748b">수수료+VAT · 지급예정일</text>
  <text x="455" y="488" text-anchor="middle" font-size="9" fill="#64748b">릴리스일 기준 집계</text>

  <rect x="550" y="434" width="160" height="72" rx="10" fill="#fff" stroke="#9b59b6" stroke-width="1.5" filter="url(#shSm)"/>
  <rect x="550" y="434" width="160" height="4" rx="10" fill="#9b59b6"/>
  <text x="630" y="458" text-anchor="middle" font-size="11.5" font-weight="700" fill="#1e293b">reconciliation 대사</text>
  <text x="630" y="474" text-anchor="middle" font-size="9" fill="#64748b">내부 기록 vs PG 파일</text>
  <text x="630" y="488" text-anchor="middle" font-size="9" fill="#64748b">4분류 · 수기 확정 큐</text>

  <rect x="730" y="434" width="140" height="72" rx="10" fill="#fff" stroke="#9b59b6" stroke-width="1.5" filter="url(#shSm)"/>
  <rect x="730" y="434" width="140" height="4" rx="10" fill="#9b59b6"/>
  <text x="800" y="458" text-anchor="middle" font-size="11.5" font-weight="700" fill="#1e293b">dispute 분쟁</text>
  <text x="800" y="474" text-anchor="middle" font-size="9" fill="#64748b">차지백 상태기계</text>
  <text x="800" y="488" text-anchor="middle" font-size="9" fill="#64748b">패소 시 원장 역분개</text>

  <rect x="890" y="434" width="130" height="72" rx="10" fill="#fff" stroke="#9b59b6" stroke-width="1.5" filter="url(#shSm)"/>
  <rect x="890" y="434" width="130" height="4" rx="10" fill="#9b59b6"/>
  <text x="955" y="458" text-anchor="middle" font-size="11.5" font-weight="700" fill="#1e293b">fraud FDS</text>
  <text x="955" y="474" text-anchor="middle" font-size="9" fill="#64748b">사후 탐지</text>
  <text x="955" y="488" text-anchor="middle" font-size="9" fill="#64748b">REVIEW 심사 큐</text>

  <rect x="1040" y="434" width="120" height="72" rx="10" fill="#fff" stroke="#9b59b6" stroke-width="1.5" filter="url(#shSm)"/>
  <rect x="1040" y="434" width="120" height="4" rx="10" fill="#9b59b6"/>
  <text x="1100" y="452" text-anchor="middle" font-size="10.5" font-weight="700" fill="#1e293b">receipt 영수증</text>
  <text x="1100" y="468" text-anchor="middle" font-size="10.5" font-weight="700" fill="#1e293b">notification</text>
  <text x="1100" y="484" text-anchor="middle" font-size="10.5" font-weight="700" fill="#1e293b">audit 감사로그</text>
  <text x="1100" y="498" text-anchor="middle" font-size="8.5" fill="#94a3b8">취소 연쇄 · 알림 · 추적</text>

  <!-- ══════ 인프라 층 ══════ -->
  <text x="48" y="548" font-size="11" font-weight="700" fill="#64748b">인프라 · 운영</text>

  <rect x="40" y="558" width="250" height="70" rx="10" fill="#fff" stroke="#64748b" stroke-width="1.5" filter="url(#shSm)"/>
  <rect x="40" y="558" width="250" height="4" rx="10" fill="#64748b"/>
  <text x="165" y="584" text-anchor="middle" font-size="12" font-weight="700" fill="#1e293b">MySQL 8.4</text>
  <text x="165" y="600" text-anchor="middle" font-size="9" fill="#64748b">Flyway V1~V18 · 33 테이블</text>
  <text x="165" y="614" text-anchor="middle" font-size="9" fill="#64748b">saveAndFlush 명시 영속 정책</text>

  <rect x="310" y="558" width="250" height="70" rx="10" fill="#fff" stroke="#e74c3c" stroke-width="1.5" filter="url(#shSm)"/>
  <rect x="310" y="558" width="250" height="4" rx="10" fill="#e74c3c"/>
  <text x="435" y="584" text-anchor="middle" font-size="12" font-weight="700" fill="#1e293b">Redis</text>
  <text x="435" y="600" text-anchor="middle" font-size="9" fill="#64748b">JWT denylist · 선착순 대기열</text>
  <text x="435" y="614" text-anchor="middle" font-size="9" fill="#64748b">rate limit 카운터</text>

  <rect x="580" y="558" width="250" height="70" rx="10" fill="#fff" stroke="#1e293b" stroke-width="1.5" filter="url(#shSm)"/>
  <rect x="580" y="558" width="250" height="4" rx="10" fill="#1e293b"/>
  <text x="705" y="584" text-anchor="middle" font-size="12" font-weight="700" fill="#1e293b">Kafka</text>
  <text x="705" y="600" text-anchor="middle" font-size="9" fill="#64748b">결제 이벤트 외부화</text>
  <text x="705" y="614" text-anchor="middle" font-size="9" fill="#64748b">프로세스 밖 소비자 · DLT</text>

  <rect x="850" y="558" width="310" height="70" rx="10" fill="#fff" stroke="#27ae60" stroke-width="1.5" filter="url(#shSm)"/>
  <rect x="850" y="558" width="310" height="4" rx="10" fill="#27ae60"/>
  <text x="1005" y="584" text-anchor="middle" font-size="12" font-weight="700" fill="#1e293b">복구 배치 · 관측성</text>
  <text x="1005" y="600" text-anchor="middle" font-size="9" fill="#64748b">UNKNOWN 결제 1분 주기 PG 조회 확정 · 멈춘 사가 복구</text>
  <text x="1005" y="614" text-anchor="middle" font-size="9" fill="#64748b">Prometheus/Grafana — 미확정 결제 나이 · 대사 미해결 SLO</text>

  <!-- ══════ 신뢰 원칙 푸터 ══════ -->
  <rect x="40" y="656" width="1120" height="120" rx="10" fill="#eef6fb" stroke="#4a8db8" stroke-width="1"/>
  <text x="600" y="682" text-anchor="middle" font-size="12" font-weight="700" fill="#1e5f8a">설계 원칙 셋</text>
  <text x="600" y="706" text-anchor="middle" font-size="10.5" fill="#334155">금액·가격·신원은 서버가 정한다 — 클라이언트 값은 대조용, 신뢰 경계가 검증보다 먼저</text>
  <text x="600" y="728" text-anchor="middle" font-size="10.5" fill="#334155">실패를 지운 셈 치지 않는다 — 타임아웃은 UNKNOWN으로 보존, 복구 배치가 PG 조회로 확정</text>
  <text x="600" y="750" text-anchor="middle" font-size="10.5" fill="#334155">돈이 맞는지 수학으로 증명한다 — 복식부기 원장(차변=대변)과 대사가 최종 방어선</text>

  <!-- Arrows -->
  <line x1="170" y1="127" x2="204" y2="127" stroke="#4a8db8" stroke-width="1.8" marker-end="url(#ar)"/>
  <line x1="380" y1="127" x2="414" y2="127" stroke="#4a8db8" stroke-width="1.8" marker-end="url(#ar)"/>
  <line x1="170" y1="197" x2="204" y2="197" stroke="#9b59b6" stroke-width="1.5" marker-end="url(#arP)"/>
  <line x1="295" y1="170" x2="295" y2="160" stroke="#4a8db8" stroke-width="1.2"/>
  <line x1="620" y1="162" x2="654" y2="162" stroke="#27ae60" stroke-width="1.8" marker-end="url(#arG)"/>
  <line x1="860" y1="162" x2="894" y2="162" stroke="#e67e22" stroke-width="1.8" marker-end="url(#arO)"/>
  <line x1="520" y1="224" x2="500" y2="238" stroke="#27ae60" stroke-width="1.5" marker-end="url(#arG)"/>
  <line x1="560" y1="224" x2="620" y2="238" stroke="#27ae60" stroke-width="1.5" marker-end="url(#arG)"/>
  <line x1="790" y1="224" x2="810" y2="238" stroke="#27ae60" stroke-width="1.5" marker-end="url(#arG)"/>
  <line x1="840" y1="224" x2="950" y2="238" stroke="#27ae60" stroke-width="1.5" marker-end="url(#arG)"/>
  <line x1="760" y1="310" x2="700" y2="340" stroke="#e67e22" stroke-width="1.8" marker-end="url(#arO)"/>
  <line x1="115" y1="390" x2="115" y2="428" stroke="#9b59b6" stroke-width="1.5" marker-end="url(#arP)"/>
  <line x1="285" y1="390" x2="285" y2="428" stroke="#9b59b6" stroke-width="1.5" marker-end="url(#arP)"/>
  <line x1="455" y1="390" x2="455" y2="428" stroke="#9b59b6" stroke-width="1.5" marker-end="url(#arP)"/>
  <line x1="630" y1="390" x2="630" y2="428" stroke="#9b59b6" stroke-width="1.5" marker-end="url(#arP)"/>
  <line x1="800" y1="390" x2="800" y2="428" stroke="#9b59b6" stroke-width="1.5" marker-end="url(#arP)"/>
  <line x1="955" y1="390" x2="955" y2="428" stroke="#9b59b6" stroke-width="1.5" marker-end="url(#arP)"/>
  <line x1="1100" y1="390" x2="1100" y2="428" stroke="#9b59b6" stroke-width="1.5" marker-end="url(#arP)"/>
  <line x1="705" y1="528" x2="705" y2="552" stroke="#1e293b" stroke-width="1.5"/>
  <text x="712" y="545" font-size="8.5" fill="#64748b">외부화</text>
</svg>
